<?xml version="1.0" standalone="no"?>
<!DOCTYPE svg PUBLIC "-//W3C//DTD SVG 20010904//EN"
 "http://www.w3.org/TR/2001/REC-SVG-20010904/DTD/svg10.dtd">
<svg version="1.0" xmlns="http://www.w3.org/2000/svg"
 width="672.000000pt" height="672.000000pt" viewBox="0 0 672.000000 672.000000"
 preserveAspectRatio="xMidYMid meet">
<metadata>
Created by potrace 1.14, written by Peter Selinger 2001-2017
</metadata>
<g transform="translate(0.000000,672.000000) scale(0.100000,-0.100000)"
fill="#000000" stroke="none">
<path d="M870 6363 c-103 -17 -212 -75 -292 -155 -74 -73 -117 -149 -146 -255
-18 -65 -19 -124 -17 -1178 1 -610 5 -1123 9 -1140 23 -106 90 -219 172 -295
54 -49 170 -112 229 -124 57 -11 130 -19 165 -17 66 3 73 2 82 -7 13 -13 17
-72 5 -65 -5 3 -7 -3 -4 -13 5 -17 10 -121 8 -164 -1 -13 -67 -15 -541 -14
l-540 1 0 -267 0 -267 537 0 536 0 8 -21 c5 -13 4 -22 -2 -22 -6 0 -6 -7 1
-20 6 -11 7 -20 3 -20 -4 0 -7 -21 -6 -47 5 -122 5 -161 1 -169 -3 -5 -2 -18
2 -29 4 -11 4 -30 -1 -42 -5 -14 -4 -23 4 -27 7 -2 8 -5 2 -5 -5 -1 -9 -22 -8
-48 5 -122 5 -161 1 -169 -3 -5 -2 -18 2 -29 4 -11 4 -30 -1 -42 -5 -14 -4
-23 4 -27 7 -2 8 -5 2 -5 -6 -1 -8 -32 -5 -82 3 -44 2 -86 -2 -92 -3 -6 -2
-21 2 -33 5 -13 6 -25 1 -28 -4 -3 -5 -27 -1 -53 3 -27 3 -62 -1 -80 -3 -17
-3 -37 2 -44 4 -7 3 -23 -1 -35 -6 -15 -5 -24 3 -28 9 -3 8 -5 -1 -5 -7 -1
-11 -5 -8 -9 3 -5 5 -44 5 -88 1 -94 1 -112 5 -139 1 -11 -1 -32 -5 -47 -4
-15 -4 -30 0 -33 5 -2 5 -23 1 -45 -4 -22 -4 -43 1 -45 4 -3 4 -18 -1 -34 -4
-15 -4 -34 0 -40 4 -7 4 -27 1 -44 -4 -18 -4 -51 -1 -74 4 -23 3 -48 -1 -54
-4 -7 -3 -23 1 -35 5 -13 5 -26 0 -29 -4 -3 -5 -17 -1 -32 4 -15 4 -46 1 -70
l-7 -43 2285 0 2284 0 -4 30 c-3 16 -2 30 1 30 3 0 5 26 3 57 -2 32 -3 64 -3
71 0 6 1 23 1 37 0 14 0 33 0 43 0 77 -1 116 -4 120 -2 2 -1 16 3 30 5 15 5
36 1 47 -4 11 -4 30 1 42 5 14 4 23 -4 27 -7 2 -8 5 -1 5 7 1 8 18 4 49 -3 27
-3 61 1 75 4 15 4 29 -1 32 -4 2 -4 23 0 45 4 22 4 43 -1 45 -4 3 -4 18 1 34
4 15 4 34 0 41 -4 6 -4 27 0 46 4 19 4 36 0 39 -5 3 -5 19 0 35 5 16 5 32 1
35 -5 2 -5 23 -1 45 4 22 4 43 -1 45 -4 3 -4 18 1 34 4 15 4 34 0 40 -4 7 -4
27 -1 44 4 18 4 51 1 74 -4 23 -3 48 1 54 4 7 3 23 -1 35 -5 13 -6 25 -1 28 4
3 5 27 1 53 -3 27 -3 62 1 80 3 17 3 37 -2 44 -4 7 -3 23 1 35 6 15 5 24 -3
28 -7 2 -7 5 -2 5 6 1 8 32 5 82 -3 44 -2 86 2 92 3 6 2 21 -2 33 -6 14 -5 26
0 29 5 3 6 15 1 28 -5 12 -5 31 -1 42 4 11 4 29 0 40 -7 22 -2 55 8 56 4 0
247 1 540 1 l532 1 0 267 0 267 -512 0 -513 0 -5 44 c-3 24 -3 82 0 129 6 96
-1 90 105 95 89 4 113 10 204 53 129 60 250 203 287 337 18 68 21 235 19 1217
l-1 1113 -29 75 c-62 167 -174 279 -343 343 l-57 22 -2490 1 c-1369 1 -2501
-1 -2515 -3z m1170 -3167 c14 0 31 3 36 7 5 3 16 2 23 -3 8 -4 27 -4 42 0 16
5 29 6 29 2 0 -9 123 -7 138 2 7 4 12 3 12 -1 0 -10 53 -9 69 2 6 3 11 2 11
-2 0 -10 53 -9 69 2 6 3 11 2 11 -2 0 -9 35 -9 76 1 11 2 27 1 34 -4 7 -5 24
-4 36 0 13 5 26 5 29 1 3 -5 20 -6 38 -2 18 5 41 5 52 1 11 -4 32 -4 48 1 15
4 27 5 27 1 0 -8 86 -6 99 3 5 3 12 1 15 -3 3 -5 16 -7 29 -5 l24 5 1 -131 c1
-117 0 -131 -16 -131 -141 -5 -1124 -2 -1128 3 -6 6 -6 32 -1 190 1 31 -2 59
-8 61 -5 2 23 4 63 3 39 0 75 2 78 6 3 3 13 3 22 -1 9 -3 28 -6 42 -6z m1872
5 c15 4 30 4 33 -1 3 -5 19 -5 35 0 17 5 30 5 30 1 0 -5 17 -5 38 -2 20 4 52
4 70 0 18 -3 35 -3 37 2 3 4 16 4 28 0 12 -5 34 -5 49 0 16 4 28 5 28 1 0 -4
29 -7 65 -7 36 0 65 4 65 8 0 5 5 5 11 1 6 -3 37 -6 69 -6 32 0 63 3 69 6 6 4
11 4 11 -1 0 -4 16 -8 35 -8 19 0 35 3 35 6 0 4 16 3 35 -1 19 -4 37 -4 40 0
3 5 18 5 34 0 15 -4 33 -5 39 -1 6 3 28 5 49 3 21 -2 54 -3 74 -4 l37 0 1
-129 c1 -127 0 -129 -22 -130 -95 -3 -1150 0 -1154 4 -4 4 -6 159 -4 239 1 14
9 18 41 16 22 -1 43 1 46 5 3 3 16 2 27 -2 12 -5 34 -5 49 0z"/>
</g>
</svg>
