<?xml version="1.0" encoding="UTF-8" standalone="no"?>
<!-- Created with Inkscape (http://www.inkscape.org/) -->

<svg
   version="1.1"
   id="svg2"
   xml:space="preserve"
   width="1362.0704"
   height="301.76443"
   viewBox="0 0 1362.0704 301.76443"
   sodipodi:docname="caspr_logo.svg"
   inkscape:version="1.1.2 (0a00cf5339, 2022-02-04)"
   inkscape:export-filename="/home/gealy/Downloads/caspr_logo.png"
   inkscape:export-xdpi="96"
   inkscape:export-ydpi="96"
   xmlns:inkscape="http://www.inkscape.org/namespaces/inkscape"
   xmlns:sodipodi="http://sodipodi.sourceforge.net/DTD/sodipodi-0.dtd"
   xmlns="http://www.w3.org/2000/svg"
   xmlns:svg="http://www.w3.org/2000/svg"><defs
     id="defs6"><rect
       x="380.80298"
       y="154.30162"
       width="1174.3937"
       height="390.31082"
       id="rect4425" /><clipPath
       clipPathUnits="userSpaceOnUse"
       id="clipPath16"><path
         d="M 0,0.028 H 959.981 V 539.999 H 0 Z"
         clip-rule="evenodd"
         id="path14" /></clipPath></defs><sodipodi:namedview
     id="namedview4"
     pagecolor="#ffffff"
     bordercolor="#666666"
     borderopacity="1.0"
     inkscape:pageshadow="2"
     inkscape:pageopacity="0.0"
     inkscape:pagecheckerboard="0"
     showgrid="false"
     inkscape:zoom="0.35410234"
     inkscape:cx="954.52631"
     inkscape:cy="-273.93211"
     inkscape:window-width="1920"
     inkscape:window-height="1011"
     inkscape:window-x="0"
     inkscape:window-y="32"
     inkscape:window-maximized="1"
     inkscape:current-layer="g8"
     fit-margin-top="0"
     fit-margin-left="0"
     fit-margin-right="0"
     fit-margin-bottom="0" /><g
     id="g8"
     inkscape:groupmode="layer"
     inkscape:label="X2VisionPlan-v0"
     transform="matrix(1.3333333,0,0,-1.3333333,-13.07242,535.2747)"><g
       id="g1088"><path
         d="M 135.90062,176.25771 H 51.465877 v 77.36496 H 220.33442 v -77.36496 z"
         style="fill:#d0cece;fill-opacity:1;fill-rule:evenodd;stroke:none;stroke-width:0.934044"
         id="path22" /><g
         id="g24"
         transform="matrix(0.93404363,0,0,0.93404363,-312.43192,97.171298)"
         style="stroke-width:2.40888;stroke-miterlimit:4;stroke-dasharray:none"><path
           d="m 479.991,84.671 h -90.397 v 82.828 H 570.387 V 84.671 Z"
           style="fill:none;stroke:#000000;stroke-width:2.40888;stroke-linecap:butt;stroke-linejoin:miter;stroke-miterlimit:4;stroke-dasharray:none;stroke-opacity:1"
           id="path26" /></g><path
         d="m 136.21819,264.63692 h -13.1588 v 30.2107 h 26.29146 v -30.2107 z"
         style="fill:#767171;fill-opacity:1;fill-rule:evenodd;stroke:none;stroke-width:0.934044"
         id="path28" /><g
         id="g30"
         transform="matrix(0.93404363,0,0,0.93404363,-312.43192,97.171298)"
         style="stroke-width:2.40888;stroke-miterlimit:4;stroke-dasharray:none"><path
           d="m 480.331,179.291 h -14.088 v 32.344 h 28.148 v -32.344 z"
           style="fill:none;stroke:#000000;stroke-width:2.40888;stroke-linecap:butt;stroke-linejoin:miter;stroke-miterlimit:4;stroke-dasharray:none;stroke-opacity:1"
           id="path32" /></g><path
         d="M 64.624683,264.63692 H 51.465877 v 30.2107 h 26.291459 v -30.2107 z"
         style="fill:#767171;fill-opacity:1;fill-rule:evenodd;stroke:none;stroke-width:0.934044"
         id="path34" /><g
         id="g36"
         transform="matrix(0.93404363,0,0,0.93404363,-312.43192,97.171298)"
         style="stroke-width:2.40888;stroke-miterlimit:4;stroke-dasharray:none"><path
           d="m 403.682,179.291 h -14.088 v 32.344 h 28.148 v -32.344 z"
           style="fill:none;stroke:#000000;stroke-width:2.40888;stroke-linecap:butt;stroke-linejoin:miter;stroke-miterlimit:4;stroke-dasharray:none;stroke-opacity:1"
           id="path38" /></g><path
         d="m 209.02876,265.8026 h -13.15881 v 30.20977 h 26.29146 V 265.8026 Z"
         style="fill:#767171;fill-opacity:1;fill-rule:evenodd;stroke:none;stroke-width:0.934044"
         id="path40" /><g
         id="g42"
         transform="matrix(0.93404363,0,0,0.93404363,-312.43192,97.171298)"
         style="stroke-width:2.40888;stroke-miterlimit:4;stroke-dasharray:none"><path
           d="m 558.283,180.539 h -14.088 v 32.343 h 28.148 v -32.343 z"
           style="fill:none;stroke:#000000;stroke-width:2.40888;stroke-linecap:butt;stroke-linejoin:miter;stroke-miterlimit:4;stroke-dasharray:none;stroke-opacity:1"
           id="path44" /></g><path
         d="M 135.90062,253.64976 H 10.929317 v 17.8449 H 260.87098 v -17.8449 z"
         style="fill:#afabab;fill-opacity:1;fill-rule:evenodd;stroke:none;stroke-width:0.934044"
         id="path46" /><g
         id="g48"
         transform="matrix(0.93404363,0,0,0.93404363,-312.43192,97.171298)"
         style="stroke-width:2.40888;stroke-miterlimit:4;stroke-dasharray:none"><path
           d="M 479.991,167.528 H 346.195 v 19.105 h 267.591 v -19.105 z"
           style="fill:none;stroke:#000000;stroke-width:2.40888;stroke-linecap:butt;stroke-linejoin:miter;stroke-miterlimit:4;stroke-dasharray:none;stroke-opacity:1"
           id="path50" /></g><path
         d="M 135.82122,241.31104 H 102.8308 v 30.20978 h 65.95375 v -30.20978 z"
         style="fill:#afabab;fill-opacity:1;fill-rule:evenodd;stroke:none;stroke-width:0.934044"
         id="path52" /><g
         id="g54"
         transform="matrix(0.93404363,0,0,0.93404363,-312.43192,97.171298)"
         style="stroke-width:2.40888;stroke-miterlimit:4;stroke-dasharray:none"><path
           d="m 479.906,154.318 h -35.32 v 32.343 h 70.611 v -32.343 z"
           style="fill:none;stroke:#000000;stroke-width:2.40888;stroke-linecap:butt;stroke-linejoin:miter;stroke-miterlimit:4;stroke-dasharray:none;stroke-opacity:1"
           id="path56" /></g><path
         d="m 26.444716,380.87024 v 0 c 0,3.4158 0.900418,6.77835 2.594773,9.74394 1.721442,2.9385 4.183581,5.40064 7.14917,7.12208 2.938501,1.69436 6.301058,2.59478 9.716856,2.59478 H 225.89478 v 0 c 3.4158,0 6.77836,-0.90042 9.74395,-2.59478 2.9385,-1.72144 5.40064,-4.18358 7.12208,-7.14917 1.69436,-2.9385 2.59477,-6.30105 2.59477,-9.71685 v 0 l 0.0262,-77.81518 v 0 c 0,-3.41579 -0.90042,-6.77835 -2.59478,-9.74301 -1.7205,-2.93943 -4.18358,-5.40157 -7.14823,-7.12301 -2.93944,-1.69436 -6.30199,-2.59478 -9.71686,-2.59478 l -180.016355,-0.0262 v 0 c -3.415798,0 -6.778355,0.90042 -9.743944,2.59477 -2.938501,1.72145 -5.40064,4.18359 -7.122082,7.14917 -1.694355,2.93851 -2.594773,6.30106 -2.594773,9.71686 z"
         style="fill:#ffffff;fill-opacity:1;fill-rule:evenodd;stroke:none;stroke-width:0.934044"
         id="path58" /><g
         id="g60"
         transform="matrix(0.93404363,0,0,0.93404363,-312.43192,97.171298)"
         style="stroke-width:2.40888;stroke-miterlimit:4;stroke-dasharray:none"><path
           d="m 362.806,303.732 v 0 c 0,3.657 0.964,7.257 2.778,10.432 1.843,3.146 4.479,5.782 7.654,7.625 3.146,1.814 6.746,2.778 10.403,2.778 H 576.34 v 0 c 3.657,0 7.257,-0.964 10.432,-2.778 3.146,-1.843 5.782,-4.479 7.625,-7.654 1.814,-3.146 2.778,-6.746 2.778,-10.403 v 0 l 0.028,-83.31 v 0 c 0,-3.657 -0.964,-7.257 -2.778,-10.431 -1.842,-3.147 -4.479,-5.783 -7.653,-7.626 -3.147,-1.814 -6.747,-2.778 -10.403,-2.778 l -192.728,-0.028 v 0 c -3.657,0 -7.257,0.964 -10.432,2.778 -3.146,1.843 -5.782,4.479 -7.625,7.654 -1.814,3.146 -2.778,6.746 -2.778,10.403 z"
           style="fill:none;stroke:#000000;stroke-width:2.40888;stroke-linecap:butt;stroke-linejoin:miter;stroke-miterlimit:4;stroke-dasharray:none;stroke-opacity:1"
           id="path62" /></g><path
         d="m 139.73954,342.241 v 0 c 0,9.13401 2.4089,18.11017 6.96329,26.00003 4.58055,7.91696 11.14688,14.48329 19.0629,19.0629 7.8908,4.5544 16.86602,6.96423 26.00097,6.96423 v 0 c 9.13401,0 18.11017,-2.40983 26.02619,-6.96423 7.88987,-4.57961 14.45619,-11.14594 19.03674,-19.0629 4.5544,-7.88986 6.9633,-16.86602 6.9633,-26.00003 v 0 0 c 0,-9.13495 -2.4089,-18.11018 -6.9633,-26.02713 -4.58055,-7.88987 -11.14687,-14.45619 -19.03674,-19.03674 -7.91602,-4.55347 -16.89218,-6.9633 -26.02619,-6.9633 v 0 c -9.13495,0 -18.11017,2.40983 -26.00097,6.9633 -7.91602,4.58055 -14.48235,11.14687 -19.0629,19.03674 -4.55439,7.91695 -6.96329,16.89218 -6.96329,26.02713 z"
         style="fill:#f2f2f2;fill-opacity:1;fill-rule:evenodd;stroke:none;stroke-width:0.934044"
         id="path64" /><g
         id="g66"
         transform="matrix(0.93404363,0,0,0.93404363,-312.43192,97.171298)"
         style="stroke-width:2.40888;stroke-miterlimit:4;stroke-dasharray:none"><path
           d="m 484.101,262.375 v 0 c 0,9.779 2.579,19.389 7.455,27.836 4.904,8.476 11.934,15.506 20.409,20.409 8.448,4.876 18.057,7.456 27.837,7.456 v 0 c 9.779,0 19.389,-2.58 27.864,-7.456 8.447,-4.903 15.477,-11.933 20.381,-20.409 4.876,-8.447 7.455,-18.057 7.455,-27.836 v 0 0 c 0,-9.78 -2.579,-19.389 -7.455,-27.865 -4.904,-8.447 -11.934,-15.477 -20.381,-20.381 -8.475,-4.875 -18.085,-7.455 -27.864,-7.455 v 0 c -9.78,0 -19.389,2.58 -27.837,7.455 -8.475,4.904 -15.505,11.934 -20.409,20.381 -4.876,8.476 -7.455,18.085 -7.455,27.865 z"
           style="fill:none;stroke:#000000;stroke-width:2.40888;stroke-linecap:butt;stroke-linejoin:miter;stroke-miterlimit:4;stroke-dasharray:none;stroke-opacity:1"
           id="path68" /></g><path
         d="m 28.271705,342.241 v 0 c 0,9.13401 2.409832,18.11017 6.963295,26.00003 4.58055,7.91696 11.146877,14.48329 19.063831,19.0629 7.889867,4.5544 16.865091,6.96423 26.000038,6.96423 v 0 c 9.134947,0 18.110172,-2.40983 26.000041,-6.96423 7.91695,-4.57961 14.48328,-11.14594 19.06383,-19.0629 4.55346,-7.88986 6.96329,-16.86602 6.96329,-26.00003 v 0 0 c 0,-9.13495 -2.40983,-18.11018 -6.96329,-26.02713 -4.58055,-7.88987 -11.14688,-14.45619 -19.03675,-19.03674 -7.916949,-4.55347 -16.892174,-6.9633 -26.027121,-6.9633 v 0 c -9.134947,0 -18.110171,2.40983 -26.000038,6.9633 -7.916954,4.58055 -14.483281,11.14687 -19.063831,19.03674 -4.553463,7.91695 -6.963295,16.89218 -6.963295,26.02713 z"
         style="fill:#f2f2f2;fill-opacity:1;fill-rule:evenodd;stroke:none;stroke-width:0.934044"
         id="path70" /><g
         id="g72"
         transform="matrix(0.93404363,0,0,0.93404363,-312.43192,97.171298)"
         style="stroke-width:2.40888;stroke-miterlimit:4;stroke-dasharray:none"><path
           d="m 364.762,262.375 v 0 c 0,9.779 2.58,19.389 7.455,27.836 4.904,8.476 11.934,15.506 20.41,20.409 8.447,4.876 18.056,7.456 27.836,7.456 v 0 c 9.78,0 19.389,-2.58 27.836,-7.456 8.476,-4.903 15.506,-11.933 20.41,-20.409 4.875,-8.447 7.455,-18.057 7.455,-27.836 v 0 0 c 0,-9.78 -2.58,-19.389 -7.455,-27.865 -4.904,-8.447 -11.934,-15.477 -20.381,-20.381 -8.476,-4.875 -18.085,-7.455 -27.865,-7.455 v 0 c -9.78,0 -19.389,2.58 -27.836,7.455 -8.476,4.904 -15.506,11.934 -20.41,20.381 -4.875,8.476 -7.455,18.085 -7.455,27.865 z"
           style="fill:none;stroke:#000000;stroke-width:2.40888;stroke-linecap:butt;stroke-linejoin:miter;stroke-miterlimit:4;stroke-dasharray:none;stroke-opacity:1"
           id="path74" /></g><path
         d="m 144.61151,342.00281 v 0 c 0,8.26069 2.17072,16.38873 6.30106,23.56406 4.15649,7.17532 10.08767,13.1065 17.26299,17.26299 7.17532,4.13034 15.30337,6.30106 23.56405,6.30106 v 0 c 8.26068,0 16.38966,-2.17072 23.56499,-6.30106 7.17439,-4.15649 13.10556,-10.08767 17.26206,-17.26299 4.13127,-7.17533 6.30199,-15.30337 6.30199,-23.56406 v 0 0 c 0,-8.26068 -2.17072,-16.38966 -6.30199,-23.56498 -4.1565,-7.17532 -10.08767,-13.10557 -17.26206,-17.263 -7.17533,-4.13034 -15.30431,-6.30105 -23.56499,-6.30105 v 0 c -8.26068,0 -16.38873,2.17071 -23.56405,6.30105 -7.17532,4.15743 -13.1065,10.08768 -17.26299,17.263 -4.13034,7.17532 -6.30106,15.3043 -6.30106,23.56498 z"
         style="fill:#404040;fill-opacity:1;fill-rule:evenodd;stroke:none;stroke-width:0.93375;stroke-miterlimit:4;stroke-dasharray:none"
         id="path76" /><g
         id="g78"
         transform="matrix(0.93404363,0,0,0.93404363,-312.43192,97.171298)"
         style="stroke-width:2.40888;stroke-miterlimit:4;stroke-dasharray:none"><path
           d="m 489.317,262.12 v 0 c 0,8.844 2.324,17.546 6.746,25.228 4.45,7.682 10.8,14.032 18.482,18.482 7.682,4.422 16.384,6.746 25.228,6.746 v 0 c 8.844,0 17.547,-2.324 25.229,-6.746 7.681,-4.45 14.031,-10.8 18.481,-18.482 4.423,-7.682 6.747,-16.384 6.747,-25.228 v 0 0 c 0,-8.844 -2.324,-17.547 -6.747,-25.229 -4.45,-7.682 -10.8,-14.031 -18.481,-18.482 -7.682,-4.422 -16.385,-6.746 -25.229,-6.746 v 0 c -8.844,0 -17.546,2.324 -25.228,6.746 -7.682,4.451 -14.032,10.8 -18.482,18.482 -4.422,7.682 -6.746,16.385 -6.746,25.229 z"
           style="fill:none;stroke:#000000;stroke-width:2.40888;stroke-linecap:butt;stroke-linejoin:miter;stroke-miterlimit:4;stroke-dasharray:none;stroke-opacity:1"
           id="path80" /></g><path
         d="m 32.958736,342.241 v 0 c 0,8.26068 2.170717,16.38873 6.301058,23.56405 4.156494,7.17532 10.087672,13.1065 17.262995,17.26299 7.175323,4.13034 15.30337,6.30106 23.564052,6.30106 v 0 c 8.260682,0 16.389664,-2.17072 23.564989,-6.30106 7.17439,-4.15649 13.10556,-10.08767 17.26206,-17.26299 4.13127,-7.17532 6.30199,-15.30337 6.30199,-23.56405 v 0 0 c 0,-8.26069 -2.17072,-16.38967 -6.30199,-23.56499 -4.1565,-7.17439 -10.08767,-13.10557 -17.26206,-17.26206 -7.175325,-4.13034 -15.304307,-6.30199 -23.564989,-6.30199 v 0 c -8.260682,0 -16.388729,2.17165 -23.564052,6.30199 -7.175323,4.15649 -13.106501,10.08767 -17.262995,17.26206 -4.130341,7.17532 -6.301058,15.3043 -6.301058,23.56499 z"
         style="fill:#404040;fill-opacity:1;fill-rule:evenodd;stroke:none;stroke-width:0.934044"
         id="path82" /><g
         id="g84"
         transform="matrix(0.93404363,0,0,0.93404363,-312.43192,97.171298)"
         style="stroke-width:2.40888;stroke-miterlimit:4;stroke-dasharray:none"><path
           d="m 369.78,262.375 v 0 c 0,8.844 2.324,17.546 6.746,25.228 4.45,7.682 10.8,14.032 18.482,18.482 7.682,4.422 16.384,6.746 25.228,6.746 v 0 c 8.844,0 17.547,-2.324 25.229,-6.746 7.681,-4.45 14.031,-10.8 18.481,-18.482 4.423,-7.682 6.747,-16.384 6.747,-25.228 v 0 0 c 0,-8.844 -2.324,-17.547 -6.747,-25.229 -4.45,-7.681 -10.8,-14.031 -18.481,-18.481 -7.682,-4.422 -16.385,-6.747 -25.229,-6.747 v 0 c -8.844,0 -17.546,2.325 -25.228,6.747 -7.682,4.45 -14.032,10.8 -18.482,18.481 -4.422,7.682 -6.746,16.385 -6.746,25.229 z"
           style="fill:none;stroke:#000000;stroke-width:2.40888;stroke-linecap:butt;stroke-linejoin:miter;stroke-miterlimit:4;stroke-dasharray:none;stroke-opacity:1"
           id="path86" /></g><path
         d="M 135.82122,230.35004 H 102.8308 v 10.66958 h 65.95375 v -10.66958 z"
         style="fill:#767171;fill-opacity:1;fill-rule:evenodd;stroke:none;stroke-width:0.934044"
         id="path88" /><g
         id="g90"
         transform="matrix(0.93404363,0,0,0.93404363,-312.43192,97.171298)"
         style="stroke-width:2.40888;stroke-miterlimit:4;stroke-dasharray:none"><path
           d="m 479.906,142.583 h -35.32 v 11.423 h 70.611 v -11.423 z"
           style="fill:none;stroke:#000000;stroke-width:2.40888;stroke-linecap:butt;stroke-linejoin:miter;stroke-miterlimit:4;stroke-dasharray:none;stroke-opacity:1"
           id="path92" /></g><path
         d="M 135.82122,200.82772 H 102.8308 v 29.44293 h 65.95375 v -29.44293 z"
         style="fill:#3b3838;fill-opacity:1;fill-rule:evenodd;stroke:none;stroke-width:0.934044"
         id="path94" /><g
         id="g96"
         transform="matrix(0.93404363,0,0,0.93404363,-312.43192,97.171298)"
         style="stroke-width:2.40888;stroke-miterlimit:4;stroke-dasharray:none"><path
           d="m 479.906,110.976 h -35.32 v 31.522 h 70.611 v -31.522 z"
           style="fill:none;stroke:#000000;stroke-width:2.40888;stroke-linecap:butt;stroke-linejoin:miter;stroke-miterlimit:4;stroke-dasharray:none;stroke-opacity:1"
           id="path98" /></g></g><text
       xml:space="preserve"
       transform="matrix(4.9580376,0,0,-4.9580376,-1592.6358,1156.5998)"
       id="text4423"
       style="font-style:normal;font-variant:normal;font-weight:bold;font-stretch:normal;font-size:40px;line-height:1.25;font-family:sans-serif;-inkscape-font-specification:'sans-serif Bold';white-space:pre;shape-inside:url(#rect4425);fill:#ffffff;fill-opacity:1;stroke:none"
       inkscape:export-filename="/home/gealy/workspace/caspr_site_beta/assets/img/casper_logo.png"
       inkscape:export-xdpi="96"
       inkscape:export-ydpi="96"><tspan
         x="380.80273"
         y="189.69141"
         id="tspan1190">CASPR</tspan></text></g></svg>
