<?xml version="1.0" encoding="UTF-8"?>
<svg xmlns="http://www.w3.org/2000/svg" width="142.13" height="72.545" viewBox="0 0 142.13 72.545">
  <defs>
    <clipPath id="a">
      <path fill="none" d="M0 0h142.13v72.545H0z"></path>
    </clipPath>
  </defs>
  <g clip-path="url(#a)">
    <path d="M112.486 3.718H79.642v60.463h32.844c16.3 0 29.644-6.733 29.644-29.644v-1.174c0-23.945-13.339-29.645-29.644-29.645m6.163 30.533c0 16.224-7.247 15.294-16.1 15.294h-.251l-.286-31.192h.539c8.856 0 16.1-2.064 16.1 15.294z" fill="#002b42" fill-rule="evenodd"></path>
    <path d="M110.626-.001H77.782v60.463h32.844c16.3 0 29.644-6.733 29.644-29.644v-1.174c0-23.945-13.339-29.645-29.644-29.645m6.163 30.533c0 16.224-7.247 15.294-16.1 15.294h-.251l-.286-31.192h.539c8.856 0 16.1-2.064 16.1 15.294z" fill="#007cc4" fill-rule="evenodd"></path>
    <path d="M55.259 48.678c.775 11.335-12.118 19.539-29.21 19.539a61.762 61.762 0 0 1-20.017-3.505l-2.624-16.1c2.432 1.8 9.323 3.241 15.521 3.241 7.681 0 11.232-1.627 11.381-4.586.2-4.084-6.228-4.295-13.906-4.295a41.158 41.158 0 0 0-5.918.409V27.912a45.931 45.931 0 0 0 5.116.276c6.9 0 12.487-.654 12.487-3.148 0-2.7-5.59-3.145-12.487-3.145a32.479 32.479 0 0 0-10.371 1.394L7.394 8.562a116.33 116.33 0 0 1 18.655-1.25c19.682 0 27.919 6.739 27.428 15.493-.286 5.1-4.945 9.64-11.5 12.918 7.805 2.9 12.9 7.415 13.283 12.955" fill="#002b42" fill-rule="evenodd"></path>
    <path d="M51.851 45.889c.775 11.335-12.118 19.539-29.21 19.539a61.762 61.762 0 0 1-20.017-3.505L0 45.823c2.432 1.8 9.323 3.241 15.521 3.241 7.681 0 11.232-1.627 11.381-4.586.2-4.084-6.228-4.295-13.906-4.295a41.158 41.158 0 0 0-5.918.409V25.123a45.93 45.93 0 0 0 5.116.276c6.9 0 12.487-.654 12.487-3.148 0-2.7-5.59-3.145-12.487-3.145a32.478 32.478 0 0 0-10.372 1.391L3.985 5.77a116.331 116.331 0 0 1 18.656-1.247c19.682 0 27.919 6.739 27.428 15.493-.286 5.1-4.945 9.64-11.5 12.918 7.805 2.9 12.9 7.415 13.283 12.955" fill="#007cc4" fill-rule="evenodd"></path>
    <path d="M40.667 22.487l-.769 3.884a21.792 21.792 0 0 1 5.345-.979c4.567.155 6.04 2.12 6.4 5.936a15.321 15.321 0 0 1-3.2 10.045c-1.831 2.379-4.054 4.674-8.289 4.893a11.607 11.607 0 0 1-4.054-.775l-.942 5.616c-.362 2.737-.258 2.853 1.812 2.852l1.191.027a.617.617 0 0 1 .6.557.526.526 0 0 1-.463.574s-2.095.011-4.632.128c-2.614.31-6.435 1.16-6.435 1.16a.5.5 0 0 1-.527-.337.579.579 0 0 1 .449-.749c3.8-.693 3.583-1.5 4.132-4.045 1.6-7.374 2.93-15.182 4.426-22.416a.215.215 0 0 0-.281-.247l-2.856.962a.355.355 0 0 1-.413-.145l-.191-.3a.29.29 0 0 1 .164-.436c.742-.213 2.4-.7 3.185-.993a1.536 1.536 0 0 0 .973-1.176l.594-3.45a.439.439 0 0 1 .369-.36l3.173-.477a.21.21 0 0 1 .237.248m-4.046 20.942c.168 2.44 3.3 1.957 4.4 1.511 4.312-1.743 5.919-7.328 6.543-12.826.429-3.776-1.672-5.332-4.126-5.332-.728 0-3.428.368-3.689.881-.286.562-3.268 13.77-3.131 15.767m17.026-25.013a.926.926 0 0 1 .732-.751 27.2 27.2 0 0 0 5.39-1.536 9.524 9.524 0 0 1 1.452-.775c.339-.079.455.571.387 1.239-1.752 7.558-3.538 16.841-4.8 23.159-.112 1.12.028 1.718.468 1.726 1.371.024 3.3-3.664 4-4.644a.136.136 0 0 1 .236.027l.279.651a.308.308 0 0 1-.006.259c-1.553 3.1-4.926 7.327-7.4 6.741-1.026-.243-2.329-1.36-1.581-5.184 1.208-6.186 2.977-13.491 4.233-19.4a1.053 1.053 0 0 0-1.043-1.271l-2.122.022a.228.228 0 0 1-.227-.266m29.115 2.479a.942.942 0 0 1 1.074 1.164 129.544 129.544 0 0 0-3.217 14.892c-.147 1.129.307 1.53.639 1.53.394 0 2.189-1.314 4.053-4.551a.3.3 0 0 1 .49-.055.648.648 0 0 1 .134.654c-1.51 4.11-6.194 7.073-7.582 7.147-1.8.1-2.387-.8-1.646-4.59.338-1.6.6-3.965.82-4.951-2.143 3.5-3.925 6.429-6.688 8.637-1.336 1.008-3.494 2.44-4.984 2.44-1.541 0-2.969-1.3-1.536-6.907a671.993 671.993 0 0 0 2.376-9.551c.354-1.349.147-1.559-.232-1.559-.487 0-2.5 1.433-3.657 4.2-.037.087-.15.113-.242.132a.5.5 0 0 1-.577-.607c1-4.061 6.3-6.625 8.136-6.413 1.347.156 1.526.493.658 4.2-.763 3-1.439 6.18-2.214 9.069-.955 3.563-.787 4.339.207 4.377 1.369.052 4.17-2.982 6.339-6.2a32.144 32.144 0 0 0 3.125-6.4 29.982 29.982 0 0 0 1.4-5.571.836.836 0 0 1 .636-.653z" fill="#fff"></path>
    <path d="M92.251 38.436c2.324.058 2.653-1.65 2.653-3.041 0-1.08-1.423-2.461-3.622-4.241-2.189-1.688-4.086-2.788-4.086-5.268a6.512 6.512 0 0 1 2.275-4.629A9.11 9.11 0 0 1 95 19.282c2.093 0 5.006.339 5.035 2.4.012.825-.107 1.5-.9 1.879a1.713 1.713 0 0 1-1.714-.02c-1.53-1.317-3.566-2.45-4.667-2.45-1.223 0-2.545.363-2.537 1.888 0 1.461 1.877 3.057 3.544 4.338 2.746 2.124 5.093 3.912 5.113 6.429.026 3.331-4.473 6.245-9.179 6.274-3.137.019-4.767-1.706-4.783-3.408a3.93 3.93 0 0 1 .853-1.78c.483-.66.9-.5 1.305-.167a8.649 8.649 0 0 1 1.527 1.269c1.02 1.02 1.7 2.45 3.654 2.5m2.807 32.517H91.2v-5.155h3.792v.6h-3.088v1.555h2.845v.624h-2.852v1.745h3.161zm-5.743-.012v-2.382h-2.656v2.383h-.7v-5.15h.682v2.1h2.676v-2.1h.691v5.148zm33.931.01h-.6v-.272c0-.75 0-1.5 0-2.249 0-.477-.166-.728-.5-.779a.825.825 0 0 0-.99.556 1.972 1.972 0 0 0-.078.565c-.009.633 0 1.266 0 1.9v.279h-.633v-2.367c0-.075 0-.15 0-.225-.015-.379-.162-.622-.421-.694a.815.815 0 0 0-.973.365 2.181 2.181 0 0 0-.171.79c-.024.615-.008 1.233-.008 1.849v.279h-.611v-3.731h.572c.006.128.012.247.02.429a1.3 1.3 0 0 1 1.077-.567 1.074 1.074 0 0 1 1.012.557c.06-.055.107-.1.151-.14a1.412 1.412 0 0 1 1.523-.331.833.833 0 0 1 .628.791c.025.989.008 1.979.008 3m-21.076-3.608a4.855 4.855 0 0 1-.526-.007.237.237 0 0 1-.156-.141 1.283 1.283 0 0 0-1.173-.935 1.42 1.42 0 0 0-1.547.679 2.808 2.808 0 0 0 .037 2.857 1.446 1.446 0 0 0 1.621.657 1.407 1.407 0 0 0 1.114-1.2c.013-.065.03-.129.048-.206h.616a1.922 1.922 0 0 1-.972 1.758 2.338 2.338 0 0 1-3.5-1.795 3.874 3.874 0 0 1 .132-1.8 2.264 2.264 0 0 1 2.662-1.536 1.839 1.839 0 0 1 1.628 1.4.988.988 0 0 1 .027.146.667.667 0 0 1-.012.116m24.568 1.045a4.316 4.316 0 0 1 .091.5c-.048-.786-.442-1.4-.922-1.4a.685.685 0 0 0-.5.244.927.927 0 0 1 .42-.091.907.907 0 0 1 .908.742m.079.959a4.18 4.18 0 0 1-.127.539 2.256 2.256 0 0 0 .127-.539m-1.041 1.163a1.065 1.065 0 0 1-.254-.04.63.63 0 0 0 .385.14.823.823 0 0 0 .679-.5.872.872 0 0 1-.81.4m5.665.456h-.276c-.469 0-.469 0-.552-.472-.09.072-.171.139-.253.2a1.749 1.749 0 0 1-1.555.322.982.982 0 0 1-.777-.95.947.947 0 0 1 .572-1.083 8.328 8.328 0 0 1 1.21-.267c.122-.025.248-.031.372-.045.18-.02.349-.054.394-.273a.565.565 0 0 0-.233-.613 1.306 1.306 0 0 0-1.267.017c-.155.092-.234.314-.384.528h-.472a1.011 1.011 0 0 1 .559-1.032 2.23 2.23 0 0 1 1.885-.04.852.852 0 0 1 .537.831c.014.641.008 1.283.012 1.925 0 .3-.037.605.225.834.016.014 0 .062 0 .117m-.854-1.866c-.4.07-.787.132-1.168.2a2.318 2.318 0 0 0-.454.123.5.5 0 0 0-.313.519.533.533 0 0 0 .336.509 1.136 1.136 0 0 0 1.6-1.028v-.327m-50.221-.76h-.512a1.1 1.1 0 0 1 .862-1.164 2.566 2.566 0 0 1 1.358 0 .93.93 0 0 1 .766.95c.019.616.006 1.233.011 1.85 0 .312-.047.638.226.883.016.015 0 .062 0 .113a5.278 5.278 0 0 1-.58-.007.3.3 0 0 1-.179-.156 1.339 1.339 0 0 1-.07-.308c-.092.074-.172.141-.256.2a1.756 1.756 0 0 1-1.58.314.977.977 0 0 1-.747-.923.934.934 0 0 1 .53-1.08 8.4 8.4 0 0 1 1.253-.292c.121-.026.248-.03.371-.045.169-.021.342-.043.383-.252a.574.574 0 0 0-.166-.593 1.351 1.351 0 0 0-1.41.032 2.158 2.158 0 0 0-.263.475m1.853.768c-.394.068-.776.13-1.157.2a2.64 2.64 0 0 0-.431.112.5.5 0 0 0-.34.526.511.511 0 0 0 .379.525 1.132 1.132 0 0 0 1.537-.789 2.008 2.008 0 0 0 .011-.575m55.262 1.053l.669-2q.067-.2.134-.4c.2-.605.2-.605.87-.524-.205.582-.408 1.159-.613 1.735q-.468 1.315-.94 2.629a3.472 3.472 0 0 1-.185.435.94.94 0 0 1-1.137.485.21.21 0 0 1-.119-.148 4.139 4.139 0 0 1-.005-.453c.043 0 .065 0 .088 0 .669.066 1.007-.383.779-1.029q-.609-1.728-1.212-3.458c-.021-.061-.035-.125-.061-.218a4.218 4.218 0 0 1 .584.009c.066.009.143.116.169.194.286.834.563 1.67.843 2.505.026.078.053.156.08.234h.055m-4.617.811h-.6v-3.733h.574c.006.123.013.251.022.425a1.465 1.465 0 0 1 1.682-.488.9.9 0 0 1 .723.851c.031.565.025 1.131.031 1.7 0 .407 0 .813 0 1.238h-.639v-.259q0-1.074 0-2.148c0-.59-.178-.85-.609-.89a.955.955 0 0 0-1.137.8 5.576 5.576 0 0 0-.042.8c-.006.565 0 1.129 0 1.717m-19.303-2.524h-.6a8.632 8.632 0 0 1-.043-.172.738.738 0 0 0-.645-.609.821.821 0 0 0-.951.383 2.143 2.143 0 0 0 .013 2.082.859.859 0 0 0 1.46-.016 3.6 3.6 0 0 0 .2-.482h.554a1.4 1.4 0 0 1-1.309 1.432 1.51 1.51 0 0 1-1.757-1.341 3.042 3.042 0 0 1 .107-1.647 1.612 1.612 0 0 1 2.475-.674 1.28 1.28 0 0 1 .49 1.045m-17.551-2.649h.674v5.147h-.674z" fill="#fff"></path>
    <path d="M127.426 68.384a1.445 1.445 0 0 0-1.72-1.267 4 4 0 0 0-.855.383c-.005-.063-.014-.174-.022-.288h-.6v5.236h.618v-1.843a.522.522 0 0 1 .086.046 1.43 1.43 0 0 0 2.379-.549 2.877 2.877 0 0 0 .111-1.719m-.732 1.5c0 .007 0 .014-.007.021a1 1 0 0 1-.085.184c0 .006-.007.013-.012.02a.823.823 0 0 1-.679.5.629.629 0 0 1-.385-.14.855.855 0 0 1-.581-.623 2.537 2.537 0 0 1 0-1.477.964.964 0 0 1 .473-.633.683.683 0 0 1 .5-.244c.48 0 .874.612.923 1.4 0 .052 0 .105 0 .159a2.6 2.6 0 0 1-.017.295 2.252 2.252 0 0 1-.127.539m-21.245-3.662a2.188 2.188 0 1 1-1.846 2.161 2.025 2.025 0 0 1 1.846-2.161m0-.6a2.782 2.782 0 1 0 2.446 2.761 2.618 2.618 0 0 0-2.446-2.761m10.33 1.434a2.06 2.06 0 1 0 1.811 2.045 1.939 1.939 0 0 0-1.811-2.045m0 3.544a1.518 1.518 0 1 1 1.281-1.5 1.4 1.4 0 0 1-1.281 1.5" fill="#fff"></path>
  </g>
</svg>
